<svg width="18" height="17" viewBox="0 0 18 17" fill="none" xmlns="http://www.w3.org/2000/svg">
<path d="M9 9.4785C8.66848 9.4785 8.35054 9.3468 8.11612 9.11238C7.8817 8.87796 7.75 8.56002 7.75 8.2285C7.75 7.89698 7.8817 7.57904 8.11612 7.34462C8.35054 7.1102 8.66848 6.9785 9 6.9785C9.33152 6.9785 9.64946 7.1102 9.88388 7.34462C10.1183 7.57904 10.25 7.89698 10.25 8.2285C10.25 8.56002 10.1183 8.87796 9.88388 9.11238C9.64946 9.3468 9.33152 9.4785 9 9.4785ZM8.56 11.9735C8.70583 12.1485 8.8525 12.3185 9 12.481C9.1475 12.3185 9.29417 12.1493 9.44 11.9735C9.1467 11.9797 8.8533 11.9797 8.56 11.9735ZM6.8975 11.8693C6.25755 11.8027 5.62183 11.7004 4.99333 11.5627C4.93083 11.8543 4.88333 12.1377 4.85167 12.4093C4.69333 13.7285 4.91417 14.5302 5.25 14.7235C5.58583 14.9177 6.39 14.7077 7.45417 13.9118C7.67333 13.7477 7.89417 13.5652 8.11583 13.366C7.68208 12.8903 7.27533 12.3906 6.8975 11.8693ZM13.0067 11.5627C12.4092 11.696 11.7708 11.7993 11.1025 11.8693C10.7247 12.3906 10.3179 12.8903 9.88417 13.366C10.1058 13.566 10.3267 13.7477 10.5458 13.9118C11.61 14.7077 12.4142 14.9177 12.75 14.7235C13.0858 14.5302 13.3058 13.7285 13.1492 12.4093C13.1148 12.1251 13.0675 11.8426 13.0075 11.5627H13.0067ZM14.215 11.2402C14.6958 13.4393 14.4433 15.1902 13.375 15.8068C12.3067 16.4235 10.6642 15.7668 9 14.251C7.33583 15.7668 5.69333 16.4227 4.625 15.806C3.55667 15.1893 3.30417 13.4393 3.78417 11.2393C1.63917 10.5568 0.25 9.46183 0.25 8.2285C0.25 6.99517 1.63917 5.901 3.78417 5.21683C3.30417 3.01767 3.55667 1.26683 4.625 0.650165C5.69333 0.0334988 7.33583 0.690165 9 2.206C10.6642 0.690165 12.3067 0.0343322 13.375 0.650999C14.4433 1.26767 14.6958 3.01767 14.2158 5.21767C16.3608 5.90017 17.75 6.99517 17.75 8.2285C17.75 9.46183 16.3608 10.556 14.2158 11.2402H14.215ZM8.115 3.091C7.90308 2.89917 7.68257 2.71704 7.45417 2.54517C6.39 1.74933 5.58583 1.53933 5.25 1.7335C4.91417 1.92683 4.69417 2.7285 4.85083 4.04767C4.88417 4.32017 4.93083 4.60267 4.9925 4.89433C5.62127 4.75661 6.25727 4.65423 6.8975 4.58767C7.29333 4.0435 7.70167 3.54267 8.11583 3.091H8.115ZM11.1025 4.58767C11.7708 4.65767 12.4092 4.76183 13.0067 4.89433C13.0692 4.60267 13.1167 4.31933 13.1483 4.04767C13.3067 2.7285 13.0858 1.92683 12.75 1.7335C12.4142 1.53933 11.61 1.74933 10.5458 2.54517C10.3171 2.71702 10.0964 2.89915 9.88417 3.091C10.2983 3.54267 10.7067 4.0435 11.1025 4.58767ZM9.44 4.4835C9.29417 4.3085 9.1475 4.1385 9 3.976C8.8525 4.1385 8.70583 4.30767 8.56 4.4835C8.8533 4.47727 9.1467 4.47727 9.44 4.4835ZM5.97667 10.4818C5.82463 10.2311 5.67793 9.97714 5.53667 9.72017C5.4575 9.93433 5.38417 10.1452 5.3175 10.3543C5.53167 10.401 5.75167 10.4435 5.97583 10.4818H5.97667ZM7.58667 10.6768C8.52759 10.7467 9.47241 10.7467 10.4133 10.6768C10.9443 9.89679 11.4167 9.07843 11.8267 8.2285C11.4167 7.37856 10.9443 6.56021 10.4133 5.78017C9.47241 5.71028 8.52759 5.71028 7.58667 5.78017C7.05566 6.56021 6.58326 7.37856 6.17333 8.2285C6.58326 9.07843 7.05566 9.89679 7.58667 10.6768ZM12.4633 6.73683C12.5425 6.52267 12.6158 6.31183 12.6825 6.10267C12.464 6.05526 12.2445 6.01275 12.0242 5.97517C12.1759 6.22592 12.3223 6.47987 12.4633 6.73683ZM4.10833 6.426C3.825 6.51767 3.55667 6.61767 3.305 6.726C2.08417 7.24933 1.5 7.841 1.5 8.2285C1.5 8.616 2.08333 9.20767 3.305 9.731C3.55667 9.83933 3.825 9.93933 4.10833 10.031C4.29333 9.44767 4.5225 8.84267 4.79583 8.2285C4.53319 7.64098 4.30366 7.0392 4.10833 6.426ZM5.31667 6.10267C5.38417 6.311 5.4575 6.52267 5.53667 6.736C5.67794 6.47931 5.82464 6.22564 5.97667 5.97517C5.75167 6.0135 5.53167 6.056 5.3175 6.10267H5.31667ZM13.8917 10.031C14.175 9.93933 14.4433 9.83933 14.695 9.731C15.9158 9.20767 16.5 8.616 16.5 8.2285C16.5 7.841 15.9167 7.24933 14.695 6.726C14.4319 6.61392 14.1638 6.51381 13.8917 6.426C13.7067 7.00933 13.4775 7.61433 13.2042 8.2285C13.4775 8.84267 13.7067 9.44683 13.8917 10.031ZM12.6833 10.3543C12.6158 10.146 12.5425 9.93433 12.4633 9.721C12.3221 9.97769 12.1754 10.2314 12.0233 10.4818C12.2483 10.4435 12.4683 10.401 12.6825 10.3543H12.6833Z" fill="#2D3748"/>
</svg>
