<svg width="317" height="364" viewBox="0 0 317 364" fill="currentColor" xmlns="http://www.w3.org/2000/svg">
<path d="M159.6 0L1.49999 89.9L0.299988 271.7L157.2 363.6L315.2 273.8L316.3 106.2V103.9L316.4 92L159.6 0ZM286.8 104.8L255.8 157.8L195 51.1L286.8 104.8ZM123.5 50.6L64.2 151.9L35.2 100.9L123.5 50.6ZM27.4 140.2L48.9 178L26.9 215.5L27.4 140.2ZM31.4 259.5L63.8 204.2L127.1 315.6L31.4 259.5ZM79.1 178.1L159.3 41.2L240.4 183.8L160.2 320.7L79.1 178.1ZM196.1 311.3L255.4 210.2L284.3 261.1L196.1 311.3ZM289.4 217.1L270.6 184.1L289.9 151.3L289.4 217.1Z" fill="#333333"/>
</svg>
