<?xml version="1.0" encoding="utf-8"?>
<!-- Generator: Adobe Illustrator 25.4.1, SVG Export Plug-In . SVG Version: 6.00 Build 0)  -->
<svg version="1.1" id="Layer_1" xmlns="http://www.w3.org/2000/svg" xmlns:xlink="http://www.w3.org/1999/xlink" x="0px" y="0px"
	 viewBox="0 0 1533.2 367.8" style="enable-background:new 0 0 1533.2 367.8;" xml:space="preserve">
<style type="text/css">
	.st0{fill:#333333;}
</style>
<g>
	<g>
		<path class="st0" d="M186.6,2L28.5,91.9l-1.2,181.8l156.9,91.9l158-89.8l1.1-167.6v-2.3l0.1-11.9L186.6,2z M313.8,106.8l-31,53
			L222,53.1L313.8,106.8z M150.5,52.6L91.2,153.9l-29-51L150.5,52.6z M54.4,142.2l21.5,37.8l-22,37.5L54.4,142.2z M58.4,261.5
			l32.4-55.3l63.3,111.4L58.4,261.5z M106.1,180.1l80.2-136.9l81.1,142.6l-80.2,136.9L106.1,180.1z M223.1,313.3l59.3-101.1
			l28.9,50.9L223.1,313.3z M316.4,219.1l-18.8-33l19.3-32.8L316.4,219.1z"/>
	</g>
	<g>
		<polygon class="st0" points="344.3,106.4 343.4,108.1 343.4,105.8 		"/>
	</g>
</g>
<g>
	<path class="st0" d="M500.9,247.7h-32.1l-19.4-35.8c-2.4-4.1-6.3-6.2-11.6-6.2h-8.9v42h-28.8V135.6h53.4c13.6,0,23.8,2.9,30.6,8.8
		s10.3,14.4,10.3,25.5c0,8.5-2.3,15.7-7,21.5c-4.7,5.9-11.2,9.8-19.7,11.8c6.5,1.4,11.6,5.6,15.4,12.6L500.9,247.7z M462.9,180.7
		c2.8-2,4.2-5.3,4.2-9.9c0-4.7-1.4-8-4.2-10.1c-2.8-2.1-7.4-3.1-13.9-3.1h-20.3v26.1H449C455.4,183.8,460.1,182.8,462.9,180.7z"/>
	<path class="st0" d="M538,247.7V135.6h79.6v22.6h-51.2v21.3h48v22.4h-48v23.2h51.2v22.6H538z"/>
	<path class="st0" d="M658.3,135.6h54.2c12.4,0,22,3.2,28.9,9.5c6.9,6.3,10.3,15.1,10.3,26.3c0,11.1-3.5,19.9-10.4,26.2
		c-6.9,6.4-16.6,9.5-28.8,9.5h-25v40.5h-29.2V135.6z M708.5,185.2c5.4,0,9.4-1.1,12-3.3c2.6-2.2,3.9-5.7,3.9-10.3
		c0-4.7-1.3-8.1-3.9-10.4c-2.6-2.3-6.6-3.4-12-3.4h-21v27.5H708.5z"/>
	<path class="st0" d="M803.3,236.7c-8.4-8.3-12.6-20.3-12.6-36.2v-64.9h28.6v66c0,8.1,1.8,14.3,5.4,18.6c3.6,4.3,8.8,6.5,15.6,6.5
		c6.8,0,12-2.2,15.6-6.5c3.6-4.3,5.4-10.5,5.4-18.6v-66H890v64.9c0,15.8-4.3,27.8-12.8,36.2c-8.5,8.3-20.8,12.5-37,12.5
		C824.1,249.1,811.7,245,803.3,236.7z"/>
	<path class="st0" d="M960.4,247.7v-88.4h-33.5v-23.7h96.6v23.7H990v88.4H960.4z"/>
	<path class="st0" d="M1131.8,247.7l-10-23.2h-49.6l-10,23.2h-29.4l52.3-112.1h23.2l52.4,112.1H1131.8z M1081.6,202.5h30.8
		l-15.4-35.9L1081.6,202.5z"/>
	<path class="st0" d="M1283.1,199.6c3.5,4.7,5.2,10.5,5.2,17.4c0,6.1-1.6,11.5-4.8,16.1c-3.2,4.6-7.8,8.2-13.8,10.7
		c-6,2.5-13,3.8-21.1,3.8h-55.8V135.6h54.2c11.8,0,21.1,2.6,28,7.9c6.9,5.2,10.4,12.3,10.4,21.2c0,5.7-1.5,10.8-4.6,15.2
		c-3.1,4.4-7.4,7.6-12.9,9.6C1274.6,191.5,1279.6,194.9,1283.1,199.6z M1221.3,179.6h20.8c5.5,0,9.5-0.8,12.1-2.5
		c2.5-1.7,3.8-4.4,3.8-8.1c0-3.9-1.3-6.8-3.8-8.6c-2.5-1.8-6.6-2.7-12.1-2.7h-20.8V179.6z M1257.4,222.8c2.5-1.9,3.7-4.9,3.7-9.1
		c0-4.2-1.2-7.3-3.7-9.1c-2.5-1.9-6.7-2.8-12.5-2.8h-23.7v23.8h23.7C1250.8,225.6,1254.9,224.6,1257.4,222.8z"/>
	<path class="st0" d="M1328.7,247.7V135.6h29.2V224h47.7v23.7H1328.7z"/>
	<path class="st0" d="M1445.1,247.7V135.6h79.6v22.6h-51.2v21.3h48v22.4h-48v23.2h51.2v22.6H1445.1z"/>
</g>
</svg>
