<svg width="14" height="14" viewBox="0 0 14 14" fill="none" xmlns="http://www.w3.org/2000/svg">
<path d="M7.05882 0C7.04412 0 7.02353 2.49821e-08 7.00588 0.00356078C6.87059 0.0287828 6.70882 0.154893 6.60294 0.443017C6.49118 0.730845 6.46765 1.14122 6.56471 1.58068C6.66471 2.01479 6.87059 2.38897 7.1 2.61745C7.32353 2.84593 7.52647 2.90825 7.66176 2.88451C7.80294 2.86374 7.95882 2.73318 8.06471 2.44832C8.17647 2.16227 8.20588 1.74625 8.10588 1.31036C8.00294 0.871198 7.8 0.500583 7.57059 0.273585C7.37647 0.0718086 7.19706 0 7.05882 0ZM10.4529 3.84295C10.1294 3.85185 9.72059 3.9379 9.32353 4.10703C8.86471 4.30881 8.51176 4.57884 8.31765 4.83402C8.12353 5.08031 8.10588 5.26725 8.16765 5.37704C8.23235 5.48683 8.41177 5.59068 8.75588 5.60552C9.1 5.62629 9.56471 5.54024 10.0206 5.3444C10.4765 5.14559 10.8353 4.8726 11.0294 4.62334C11.2235 4.37706 11.2382 4.18418 11.1765 4.07439C11.1147 3.96164 10.9324 3.86372 10.5882 3.85185C10.5412 3.84295 10.5 3.84295 10.4529 3.84295ZM6.44412 6.59956C6.25 6.60253 6.07353 6.62627 5.91471 6.66781C5.56765 6.75683 5.36765 6.91706 5.30294 7.10994C5.22941 7.30281 5.30294 7.53426 5.53235 7.78351C5.77353 8.02683 6.17059 8.26125 6.66471 8.39181C7.15588 8.52237 7.62941 8.5194 7.98235 8.42445C8.33823 8.33246 8.53824 8.16926 8.60294 7.97936C8.67059 7.78648 8.60294 7.558 8.36471 7.30578C8.13235 7.06246 7.73529 6.82805 7.24118 6.70045C6.96177 6.62627 6.68824 6.5966 6.44412 6.59956ZM11.1706 8.32356L9.35294 9.19298C9.47647 9.19891 9.78529 9.20782 9.78529 9.20782L9.97941 9.46597L11.5882 8.62029L11.1706 8.32356ZM9.56765 8.32653L7.87941 9.13363C8.04118 9.14254 8.42353 9.14847 8.57647 9.15737L10.0412 8.45709L9.56765 8.32653ZM12.2912 8.647L10.2176 9.75677L10.6441 10.3117L12.8353 8.98824L12.2912 8.647ZM4.09118 8.91702C4.00212 8.91686 3.91332 8.92681 3.82647 8.9467C1.72353 9.4363 0.482353 9.47784 0.114706 9.47784H0V12.6677C0 12.6677 0.341177 12.6172 0.908824 12.6143C2.00588 12.6143 3.93824 12.8042 5.82059 13.9139C5.92059 13.9763 6.13529 14 6.40294 14C7.11765 14 8.20294 13.8279 8.45294 13.7329C10.9706 12.7804 14 10.1663 14 10.1663L13.0441 9.32354C13.0441 9.32354 10.6971 10.8339 10.4 10.9793C7.72059 12.3057 5.55 11.4778 5.55 11.4778C5.55 11.4778 9.07647 11.5668 10.2088 10.6677L9.54412 9.65885C9.54412 9.65885 7.10882 9.5906 6.24118 9.47487C5.78824 9.41553 4.80882 8.91702 4.09118 8.91702Z" fill="#4A5568"/>
</svg>
